<svg xmlns="http://www.w3.org/2000/svg" viewBox="0 0 20 20">
  <path fill="currentColor" d="M10.943,13.822c0-0.234-0.19-0.425-0.425-0.425c-0.117,0-0.224,0.048-0.3,0.125L7.67,16.07c-0.077,0.077-0.125,0.184-0.125,0.301c0,0.234,0.19,0.424,0.425,0.424h1.523L7.67,18.619c-0.077,0.077-0.125,0.183-0.125,0.3c0,0.235,0.19,0.425,0.425,0.425c0.117,0,0.223-0.047,0.3-0.124l2.548-2.549c0.077-0.076,0.125-0.183,0.125-0.3c0-0.235-0.19-0.425-0.425-0.425h-0.001H8.996l1.823-1.823C10.896,14.046,10.943,13.939,10.943,13.822 M16.883,5.014c0.002-0.037,0.006-0.073,0.006-0.11c0-1.407-1.141-2.548-2.548-2.548c-0.642,0-1.228,0.24-1.676,0.631c-0.906-1.4-2.477-2.33-4.27-2.33c-2.559,0-4.669,1.886-5.035,4.342C1.864,5.354,0.75,6.696,0.75,8.301c0,1.877,1.521,3.398,3.397,3.398H16.04c1.876,0,3.397-1.521,3.397-3.398C19.438,6.717,18.351,5.389,16.883,5.014 M16.04,10.849H4.147c-1.405,0-2.548-1.143-2.548-2.548c0-1.184,0.804-2.201,1.957-2.476c0.337-0.08,0.593-0.358,0.644-0.701c0.306-2.063,2.11-3.618,4.194-3.618c1.44,0,2.345,0.301,3.132,1.518c0.135,0.207,0.776,0.77,1.021,0.804c0.039,0.006,0.117,0.008,0.117,0.008c0.205,0,0.403-0.073,0.56-0.21c0.311-0.271,0.707-0.421,1.116-0.421c0.937,0,1.699,0.762,1.698,1.708l-0.005,0.062c-0.018,0.402,0.249,0.762,0.639,0.861c1.128,0.289,1.915,1.303,1.915,2.465C18.588,9.706,17.445,10.849,16.04,10.849"/>
</svg>
