<svg xmlns="http://www.w3.org/2000/svg" viewBox="0 0 20 20">
  <path fill="currentColor" d="M16.889,8.82c0.002-0.038,0.006-0.075,0.006-0.112c0-1.427-1.158-2.585-2.586-2.585c-0.65,0-1.244,0.243-1.699,0.641c-0.92-1.421-2.513-2.364-4.333-2.364c-2.595,0-4.738,1.914-5.108,4.406c-1.518,0.361-2.648,1.722-2.648,3.35c0,1.904,1.543,3.447,3.447,3.447h12.065c1.904,0,3.447-1.543,3.447-3.447C19.48,10.547,18.377,9.201,16.889,8.82 M16.033,14.74H3.968c-1.426,0-2.585-1.16-2.585-2.586c0-1.2,0.816-2.233,1.985-2.512C3.71,9.561,3.969,9.279,4.021,8.931C4.333,6.838,6.162,5.26,8.277,5.26c1.461,0,2.811,0.736,3.61,1.971c0.135,0.21,0.355,0.351,0.604,0.385c0.039,0.006,0.08,0.008,0.119,0.008c0.207,0,0.408-0.074,0.566-0.212c0.316-0.275,0.719-0.428,1.133-0.428c0.951,0,1.725,0.773,1.723,1.733L16.027,8.78c-0.018,0.408,0.252,0.772,0.646,0.874c1.146,0.293,1.945,1.321,1.945,2.5C18.619,13.58,17.459,14.74,16.033,14.74"/>
</svg>
