<svg xmlns="http://www.w3.org/2000/svg" viewBox="0 0 20 20">
  <path fill="currentColor" d="M10,16.513c-2.249,0-4.071-1.822-4.071-4.07c0-0.226-0.182-0.407-0.407-0.407c-0.225,0-0.407,0.182-0.407,0.407c0,2.697,2.187,4.885,4.885,4.885c0.225,0,0.407-0.183,0.407-0.407S10.225,16.513,10,16.513M10,1.044c-0.814,0-6.513,6.92-6.513,11.398c0,3.597,2.916,6.513,6.513,6.513c3.597,0,6.513-2.916,6.513-6.513C16.513,7.964,10.813,1.044,10,1.044 M10,18.141c-3.148,0-5.699-2.65-5.699-5.92C4.301,8.372,9.593,2.011,10,2.011c0.407,0,5.698,6.36,5.698,10.209C15.698,15.49,13.147,18.141,10,18.141"/>
</svg>
