<svg xmlns="http://www.w3.org/2000/svg" viewBox="0 0 20 20">
  <path fill="currentColor" d="M10.544,8.717l1.166-0.855l1.166,0.855l-0.467-1.399l1.012-0.778h-1.244L11.71,5.297l-0.466,1.244H10l1.011,0.778L10.544,8.717z M15.986,9.572l-0.467,1.244h-1.244l1.011,0.777l-0.467,1.4l1.167-0.855l1.165,0.855l-0.466-1.4l1.011-0.777h-1.244L15.986,9.572z M7.007,6.552c0-2.259,0.795-4.33,2.117-5.955C4.34,1.042,0.594,5.07,0.594,9.98c0,5.207,4.211,9.426,9.406,9.426c2.94,0,5.972-1.354,7.696-3.472c-0.289,0.026-0.987,0.044-1.283,0.044C11.219,15.979,7.007,11.759,7.007,6.552 M10,18.55c-4.715,0-8.551-3.845-8.551-8.57c0-3.783,2.407-6.999,5.842-8.131C6.549,3.295,6.152,4.911,6.152,6.552c0,5.368,4.125,9.788,9.365,10.245C13.972,17.893,11.973,18.55,10,18.55 M19.406,2.304h-1.71l-0.642-1.71l-0.642,1.71h-1.71l1.39,1.069l-0.642,1.924l1.604-1.176l1.604,1.176l-0.642-1.924L19.406,2.304z"/>
</svg>
