<svg xmlns="http://www.w3.org/2000/svg" viewBox="0 0 20 20">
  <path fill="currentColor" d="M5.163,5.768c0.167,0.167,0.438,0.167,0.605,0c0.167-0.167,0.167-0.438,0-0.604L3.953,3.349c-0.167-0.167-0.438-0.167-0.604,0c-0.167,0.167-0.167,0.437,0,0.604L5.163,5.768z M14.837,5.768l1.814-1.814c0.167-0.167,0.167-0.438,0-0.604c-0.168-0.167-0.438-0.167-0.605,0l-1.813,1.814c-0.167,0.167-0.167,0.437,0,0.604C14.399,5.935,14.67,5.935,14.837,5.768 M10,4.014c0.236,0,0.428-0.191,0.428-0.428V1.021c0-0.236-0.192-0.428-0.428-0.428S9.572,0.785,9.572,1.021v2.565C9.572,3.823,9.764,4.014,10,4.014 M18.979,10h-3.848c0-2.833-2.297-5.131-5.131-5.131c-2.833,0-5.131,2.297-5.131,5.131H1.021c-0.236,0-0.428,0.191-0.428,0.428s0.192,0.428,0.428,0.428h17.957c0.236,0,0.428-0.191,0.428-0.428S19.215,10,18.979,10 M5.725,10c0-2.361,1.914-4.275,4.275-4.275S14.276,7.639,14.276,10H5.725zM12.565,15.985H11.71v-2.138c0-0.235-0.191-0.427-0.428-0.427H8.717c-0.236,0-0.428,0.191-0.428,0.427v2.138H7.435c-0.235,0-0.427,0.191-0.427,0.428c0,0.118,0.047,0.226,0.125,0.304l2.565,2.564c0.077,0.078,0.185,0.125,0.302,0.125s0.225-0.047,0.302-0.125l2.565-2.564c0.078-0.078,0.126-0.186,0.126-0.304C12.993,16.177,12.802,15.985,12.565,15.985 M10,18.374l-1.533-1.533h0.25c0.236,0,0.428-0.191,0.428-0.428v-2.138h1.709v2.138c0,0.236,0.192,0.428,0.428,0.428h0.251L10,18.374z"/>
</svg>
