<svg xmlns="http://www.w3.org/2000/svg" viewBox="0 0 20 20">
  <path fill="currentColor" d="M10,6.656c-0.465,0-0.844,0.378-0.844,0.844c0,0.466,0.378,0.844,0.844,0.844s0.844-0.378,0.844-0.844C10.844,7.035,10.465,6.656,10,6.656 M10.422,1.614V1.172c0-0.233-0.188-0.422-0.422-0.422S9.578,0.939,9.578,1.172v0.442c-4.929,0.212-8.859,4.082-8.859,8.839c0,0.233,0.189,0.422,0.422,0.422h8.438v5.906c0,0.932-0.756,1.688-1.688,1.688c-0.932,0-1.688-0.756-1.688-1.688c0-0.233-0.188-0.422-0.422-0.422c-0.233,0-0.422,0.188-0.422,0.422c0,1.397,1.133,2.531,2.531,2.531c1.253,0,2.287-0.914,2.489-2.109h0.042v-6.328h8.438c0.233,0,0.422-0.189,0.422-0.422C19.281,5.696,15.351,1.826,10.422,1.614 M1.585,10.031C1.817,5.802,5.49,2.438,10,2.438c4.51,0,8.184,3.364,8.415,7.594H1.585zM4.094,7.5C3.627,7.5,3.25,7.878,3.25,8.344c0,0.465,0.377,0.843,0.844,0.843c0.465,0,0.844-0.378,0.844-0.843C4.938,7.878,4.559,7.5,4.094,7.5 M7.469,4.969c-0.465,0-0.844,0.378-0.844,0.844s0.378,0.844,0.844,0.844c0.466,0,0.844-0.378,0.844-0.844S7.935,4.969,7.469,4.969 M15.062,7.5c-0.466,0-0.844,0.378-0.844,0.844c0,0.465,0.378,0.843,0.844,0.843s0.844-0.378,0.844-0.843C15.906,7.878,15.528,7.5,15.062,7.5 M12.531,4.125c-0.466,0-0.844,0.378-0.844,0.844s0.378,0.844,0.844,0.844s0.844-0.378,0.844-0.844S12.997,4.125,12.531,4.125"/>
</svg>
