<svg xmlns="http://www.w3.org/2000/svg" viewBox="0 0 20 20"><path fill="currentColor" d="M5.739 4.034a1.705 1.705 0 1 0 0 3.41 1.705 1.705 0 0 0 0-3.41m0 2.557a.854.854 0 1 1 .001-1.707.854.854 0 0 1-.001 1.707m7.455 6.132a1.85 1.85 0 0 1-.894.235 2.414 2.414 0 0 1-1.882-.859 2.887 2.887 0 0 1-.529-.952 3.712 3.712 0 0 1-.187-1.204c0-.405.062-.783.187-1.135.125-.351.301-.659.529-.923s.501-.47.818-.619a2.472 2.472 0 0 1 1.064-.224c.264 0 .526.054.786.162.261.106.529.32.808.641l1.049-.825c-.379-.466-.786-.797-1.226-.992a3.47 3.47 0 0 0-1.427-.292c-.585 0-1.122.101-1.61.304a3.617 3.617 0 0 0-1.262.865 4.013 4.013 0 0 0-.828 1.359 5.016 5.016 0 0 0-.299 1.771c0 .634.1 1.211.299 1.73.2.52.476.965.829 1.336.353.371.773.657 1.262.859a4.153 4.153 0 0 0 1.61.304c.556 0 1.08-.114 1.571-.344.492-.229.909-.596 1.252-1.101l-1.112-.849c-.25.346-.519.596-.808.753M17.671.625H2.33C1.389.625.625 1.388.625 2.33v15.341c0 .94.763 1.704 1.705 1.704h15.341c.94 0 1.704-.764 1.704-1.704V2.33c0-.942-.764-1.705-1.704-1.705m.851 17.046c0 .47-.382.852-.852.852H2.33a.854.854 0 0 1-.853-.852V2.33c0-.47.382-.853.853-.853h15.341c.47 0 .852.382.852.853v15.341z"/></svg>
