<svg xmlns="http://www.w3.org/2000/svg" viewBox="0 0 20 20"><path fill="currentColor" d="M10.841 13.784a.42.42 0 0 0-.717-.297l-2.522 2.521a.42.42 0 0 0 .297.719h1.508l-1.805 1.805a.421.421 0 0 0 .595.595l2.522-2.523a.42.42 0 0 0-.297-.717H8.913l1.805-1.805a.423.423 0 0 0 .123-.298m-4.625.421a.419.419 0 0 0-.297.123L3.397 16.85a.421.421 0 0 0 .594.595l2.523-2.523a.422.422 0 0 0-.298-.717m10.506-9.142c.001-.036.006-.072.006-.109a2.524 2.524 0 0 0-2.523-2.523 2.51 2.51 0 0 0-1.658.625A5.033 5.033 0 0 0 8.318.75a5.042 5.042 0 0 0-4.985 4.299 3.362 3.362 0 0 0 .781 6.632h11.773a3.363 3.363 0 0 0 3.363-3.363 3.364 3.364 0 0 0-2.528-3.255m-.835 5.778H4.114a2.526 2.526 0 0 1-2.523-2.523 2.51 2.51 0 0 1 1.938-2.451.842.842 0 0 0 .638-.694 4.223 4.223 0 0 1 4.152-3.582c1.425 0 2.321.299 3.102 1.502.132.205.768.762 1.009.796a.84.84 0 0 0 .671-.2 1.675 1.675 0 0 1 1.104-.417c.928 0 1.683.755 1.682 1.691l-.005.062a.842.842 0 0 0 .632.853 2.519 2.519 0 0 1 1.896 2.44 2.527 2.527 0 0 1-2.523 2.523m-.842 3.364a.419.419 0 0 0-.297.123l-2.522 2.522a.42.42 0 0 0 .595.595l2.522-2.523a.421.421 0 0 0-.298-.717"/></svg>