<svg xmlns="http://www.w3.org/2000/svg" viewBox="0 0 20 20"><path fill="currentColor" d="M7.409 12.653c-.477 0-.864.388-.864.863 0 .478.387.864.864.864s.864-.387.864-.864c0-.475-.387-.863-.864-.863m-2.591 4.319c-.477 0-.864.387-.864.863 0 .478.387.864.864.864.476 0 .863-.387.863-.864.001-.477-.387-.863-.863-.863m-1.727-2.591c-.477 0-.864.387-.864.863s.387.864.864.864.864-.388.864-.864-.388-.863-.864-.863M10 16.108c-.477 0-.864.387-.864.863s.387.864.864.864.864-.387.864-.863-.387-.864-.864-.864m4.318-1.727c0-.477-.388-.864-.864-.864s-.863.388-.863.864c0 .478.387.863.863.863s.864-.386.864-.863m2.585-9.389c.002-.037.006-.074.006-.111 0-1.431-1.16-2.591-2.591-2.591-.653 0-1.248.244-1.704.642C11.692 1.508 10.096.563 8.273.563c-2.601 0-4.748 1.918-5.119 4.415C1.633 5.34.5 6.703.5 8.335c0 1.908 1.547 3.455 3.455 3.455h12.091c1.907 0 3.454-1.547 3.454-3.455 0-1.611-1.104-2.96-2.597-3.343m-.857 5.934H3.955c-1.429 0-2.591-1.162-2.591-2.591 0-1.204.817-2.238 1.99-2.517.343-.081.603-.364.655-.713.311-2.098 2.144-3.679 4.264-3.679 1.464 0 2.384.306 3.185 1.543.136.21.789.783 1.037.817.04.006.119.009.119.009.208 0 .41-.075.568-.214.315-.275.72-.428 1.136-.428.952 0 1.728.775 1.726 1.737l-.004.063c-.019.409.253.775.648.876 1.147.293 1.948 1.324 1.948 2.506.001 1.429-1.161 2.591-2.59 2.591m.863 4.318c-.477 0-.863.388-.863.864 0 .478.387.863.863.863s.863-.386.863-.863c0-.476-.386-.864-.863-.864m-2.591 2.591c-.477 0-.864.387-.864.864s.388.863.864.863.863-.387.863-.863c.001-.477-.386-.864-.863-.864"/></svg>
