<svg xmlns="http://www.w3.org/2000/svg" viewBox="0 0 20 20"><path fill="currentColor" d="M16.888 8.614c.008-.117.018-.233.018-.352a5.16 5.16 0 0 0-9.728-2.398 2.996 2.996 0 0 0-1.023-.182 3.01 3.01 0 0 0-2.944 3.641 3.87 3.87 0 0 0 1.224 7.54h10.752a4.301 4.301 0 0 0 4.301-4.301 4.303 4.303 0 0 0-2.6-3.948m-1.702 7.389H4.433a3.014 3.014 0 0 1-3.01-3.01c0-1.298.827-2.444 2.06-2.854l.729-.243-.16-.751a2.153 2.153 0 0 1 2.102-2.603c.245 0 .49.045.729.131l.705.256.35-.664a4.294 4.294 0 0 1 3.807-2.303 4.306 4.306 0 0 1 4.301 4.301c0 .075-.007.148-.012.223l-.005.073-.039.604.557.241a3.439 3.439 0 0 1-1.361 6.599"/></svg>