<svg xmlns="http://www.w3.org/2000/svg" viewBox="0 0 20 20"><path fill="currentColor" d="M16.903 5.793c.001-.037.006-.074.006-.111a2.592 2.592 0 0 0-2.591-2.591c-.653 0-1.248.244-1.704.642a5.162 5.162 0 0 0-4.342-2.369 5.178 5.178 0 0 0-5.119 4.415 3.453 3.453 0 0 0 .802 6.812h12.09A3.455 3.455 0 0 0 19.5 9.136a3.454 3.454 0 0 0-2.597-3.343m-.858 5.935H3.955a2.594 2.594 0 0 1-2.591-2.591 2.58 2.58 0 0 1 1.99-2.518.862.862 0 0 0 .654-.712 4.337 4.337 0 0 1 4.264-3.679c1.464 0 2.385.306 3.186 1.543.136.21.789.783 1.037.817.04.006.119.008.119.008.208 0 .41-.074.568-.213.315-.276.72-.429 1.136-.429a1.73 1.73 0 0 1 1.726 1.736l-.003.063a.862.862 0 0 0 .648.876 2.587 2.587 0 0 1 1.947 2.506 2.593 2.593 0 0 1-2.591 2.593m-6.909 3.454a.863.863 0 0 0 1.728 0c0-.863-.864-1.727-.864-1.727s-.864.863-.864 1.727m-4.318 2.59a.863.863 0 1 0 1.727 0c0-.863-.864-1.728-.864-1.728s-.863.865-.863 1.728m8.636-.863a.864.864 0 0 0 1.727 0c0-.864-.863-1.728-.863-1.728s-.864.864-.864 1.728"/></svg>