<svg xmlns="http://www.w3.org/2000/svg" viewBox="0 0 20 20"><path fill="currentColor" d="M9.153 14.656a.423.423 0 0 0-.722-.299l-2.539 2.539a.423.423 0 1 0 .597.6l2.54-2.54a.42.42 0 0 0 .124-.3m-2.539 0a.424.424 0 0 0-.723-.299l-2.539 2.539a.423.423 0 1 0 .597.6l2.54-2.54a.422.422 0 0 0 .125-.3m5.079 0a.424.424 0 0 0-.723-.299l-2.539 2.539a.423.423 0 1 0 .597.6l2.54-2.54a.417.417 0 0 0 .125-.3m2.117-.423a.424.424 0 0 0-.3.124l-2.539 2.539a.423.423 0 1 0 .598.6l2.539-2.54a.423.423 0 0 0-.298-.723m2.957-7.509c.002-.037.006-.073.006-.11a2.541 2.541 0 0 0-2.54-2.54c-.64 0-1.223.238-1.67.629a5.059 5.059 0 0 0-4.256-2.322 5.076 5.076 0 0 0-5.018 4.328 3.385 3.385 0 0 0 .785 6.678h11.852A3.388 3.388 0 0 0 19.313 10a3.387 3.387 0 0 0-2.546-3.276m-.841 5.816H4.074c-1.4 0-2.54-1.14-2.54-2.54a2.53 2.53 0 0 1 1.951-2.468.847.847 0 0 0 .642-.698 4.252 4.252 0 0 1 4.18-3.606c1.436 0 2.337.3 3.122 1.513.134.206.773.768 1.017.801a.848.848 0 0 0 .675-.201 1.69 1.69 0 0 1 1.112-.42c.935 0 1.693.759 1.692 1.702l-.004.062a.845.845 0 0 0 .637.858A2.536 2.536 0 0 1 18.466 10c0 1.4-1.14 2.54-2.54 2.54"/></svg>