<svg xmlns="http://www.w3.org/2000/svg" viewBox="0 0 20 20"><path fill="currentColor" d="M8.705 15.182c-.238 0-.432.193-.432.432v2.592c0 .238.194.432.432.432s.432-.193.432-.432v-2.592c0-.239-.194-.432-.432-.432m2.59-.864c-.238 0-.432.193-.432.432v2.591c0 .238.193.432.432.432s.433-.193.433-.432V14.75c0-.238-.194-.432-.433-.432m-7.773-.863c-.238 0-.432.193-.432.432v2.591c0 .239.194.432.432.432s.432-.192.432-.432v-2.591c.001-.239-.193-.432-.432-.432m2.591.863c-.238 0-.431.193-.431.432v1.728c0 .239.193.432.431.432.239 0 .432-.192.432-.432V14.75c0-.238-.193-.432-.432-.432m10.79-8.525c.002-.037.006-.073.006-.112 0-1.43-1.161-2.59-2.591-2.59-.653 0-1.248.243-1.704.642-.922-1.424-2.518-2.369-4.342-2.369-2.601 0-4.748 1.918-5.119 4.415C1.633 6.141.5 7.504.5 9.136c0 1.908 1.546 3.455 3.455 3.455h12.09c1.908 0 3.455-1.547 3.455-3.455 0-1.61-1.104-2.96-2.597-3.346m-.858 5.938H3.955c-1.429 0-2.591-1.162-2.591-2.591 0-1.203.819-2.239 1.99-2.517.343-.082.602-.364.654-.713.312-2.098 2.145-3.68 4.264-3.68 1.465 0 2.384.307 3.186 1.543.136.21.789.783 1.037.817.04.006.119.009.119.009.208 0 .41-.075.568-.213.315-.276.72-.429 1.136-.429.953 0 1.727.775 1.726 1.736l-.003.063c-.02.409.252.774.648.876 1.146.294 1.946 1.324 1.946 2.506.001 1.43-1.16 2.593-2.59 2.593m-2.158 1.727c-.238 0-.432.193-.432.432v2.591c0 .239.193.432.432.432s.432-.192.432-.432v-2.591c-.001-.239-.194-.432-.432-.437m2.59.005c-.237 0-.432.193-.432.432v1.727c0 .239.194.433.432.433.239 0 .433-.193.433-.433v-1.727c-.001-.239-.194-.432-.433-.432"/></svg>
