<svg xmlns="http://www.w3.org/2000/svg" viewBox="0 0 20 20"><path fill="currentColor" d="M17.668 11.332a5.149 5.149 0 0 0 1.775-3.892 5.167 5.167 0 0 0-5.166-5.167 5.165 5.165 0 0 0-5.104 4.399 5.103 5.103 0 0 0-.923-.093 5.163 5.163 0 0 0-5.104 4.402 3.442 3.442 0 0 0 .798 6.791h12.055a3.444 3.444 0 0 0 3.444-3.444c0-1.293-.72-2.408-1.775-2.996m-3.391-8.198a4.307 4.307 0 0 1 4.306 4.306c0 1.408-.68 2.653-1.724 3.438a2.582 2.582 0 0 0-4.281-1.938 5.177 5.177 0 0 0-2.568-2.044 4.303 4.303 0 0 1 4.267-3.762m1.722 13.777H3.944a2.585 2.585 0 0 1-2.583-2.583c0-1.2.816-2.231 1.984-2.51a.86.86 0 0 0 .653-.71A4.325 4.325 0 0 1 8.25 7.44c1.46 0 2.377.306 3.175 1.538.137.21.787.781 1.034.815.04.006.119.008.119.008a.86.86 0 0 0 .567-.212 1.72 1.72 0 0 1 1.132-.427c.949 0 1.722.772 1.721 1.731l-.004.063a.862.862 0 0 0 .646.874 2.578 2.578 0 0 1 1.942 2.498 2.584 2.584 0 0 1-2.583 2.583"/></svg>