<svg xmlns="http://www.w3.org/2000/svg" viewBox="0 0 20 20"><path fill="currentColor" d="M16.889 8.82c.002-.038.006-.075.006-.112a2.586 2.586 0 0 0-2.586-2.585c-.65 0-1.244.243-1.699.641A5.152 5.152 0 0 0 8.277 4.4a5.167 5.167 0 0 0-5.108 4.406 3.445 3.445 0 0 0 .799 6.797h12.065a3.447 3.447 0 0 0 .856-6.783m-.856 5.92H3.968a2.588 2.588 0 0 1-2.585-2.586c0-1.2.816-2.233 1.985-2.512a.862.862 0 0 0 .653-.711A4.33 4.33 0 0 1 8.277 5.26c1.461 0 2.811.736 3.61 1.971a.855.855 0 0 0 .723.393.86.86 0 0 0 .566-.212 1.73 1.73 0 0 1 1.133-.428c.951 0 1.725.773 1.723 1.733l-.005.063a.863.863 0 0 0 .646.874 2.58 2.58 0 0 1 1.945 2.5 2.587 2.587 0 0 1-2.585 2.586"/></svg>