<svg xmlns="http://www.w3.org/2000/svg" viewBox="0 0 20 20"><path fill="currentColor" d="M10.943 13.822a.425.425 0 0 0-.725-.3L7.67 16.07a.426.426 0 0 0 .3.725h1.523L7.67 18.619a.423.423 0 0 0 .3.725.422.422 0 0 0 .3-.124l2.548-2.549a.425.425 0 0 0-.3-.725H8.996l1.823-1.823a.425.425 0 0 0 .124-.301m5.94-8.808c.002-.037.006-.073.006-.11a2.548 2.548 0 0 0-4.224-1.917 5.078 5.078 0 0 0-4.27-2.33A5.093 5.093 0 0 0 3.36 4.999a3.395 3.395 0 0 0 .787 6.7H16.04a3.397 3.397 0 0 0 3.397-3.398 3.393 3.393 0 0 0-2.554-3.287m-.843 5.835H4.147a2.55 2.55 0 0 1-2.548-2.548c0-1.184.804-2.201 1.957-2.476a.85.85 0 0 0 .644-.701 4.266 4.266 0 0 1 4.194-3.618c1.44 0 2.345.301 3.132 1.518.135.207.776.77 1.021.804a.849.849 0 0 0 .677-.202 1.7 1.7 0 0 1 1.116-.421c.937 0 1.699.762 1.698 1.708l-.005.062a.85.85 0 0 0 .639.861 2.544 2.544 0 0 1 1.915 2.465 2.55 2.55 0 0 1-2.547 2.548"/></svg>