<svg xmlns="http://www.w3.org/2000/svg" viewBox="0 0 20 20"><path fill="currentColor" d="M5.776 4.086a1.689 1.689 0 1 0 0 3.378 1.689 1.689 0 0 0 0-3.378m0 2.535a.845.845 0 1 1 0-1.69.845.845 0 0 1 0 1.69m3.385 7.598l1.261.004v-3.378h3.379V9.577h-3.379V7.043h3.801l.002-1.262H9.161v8.438zM17.603.708H2.397c-.933 0-1.689.756-1.689 1.689v15.205c0 .934.756 1.689 1.689 1.689h15.205c.933 0 1.689-.756 1.689-1.689V2.397A1.688 1.688 0 0 0 17.603.708m.844 16.894a.846.846 0 0 1-.845.846H2.397a.846.846 0 0 1-.845-.846V2.397c0-.466.378-.845.845-.845h15.205c.466 0 .845.379.845.845v15.205z"/></svg>