<svg xmlns="http://www.w3.org/2000/svg" viewBox="0 0 20 20"><path fill="currentColor" d="M10.544 8.717l1.166-.855 1.166.855-.467-1.399 1.012-.778h-1.244l-.467-1.243-.466 1.244H10l1.011.778-.467 1.398zm5.442.855l-.467 1.244h-1.244l1.011.777-.467 1.4 1.167-.855 1.165.855-.466-1.4 1.011-.777h-1.244l-.466-1.244zm-8.979-3.02c0-2.259.795-4.33 2.117-5.955A9.418 9.418 0 0 0 .594 9.98c0 5.207 4.211 9.426 9.406 9.426 2.94 0 5.972-1.354 7.696-3.472-.289.026-.987.044-1.283.044-5.194.001-9.406-4.219-9.406-9.426M10 18.55c-4.715 0-8.551-3.845-8.551-8.57 0-3.783 2.407-6.999 5.842-8.131a10.32 10.32 0 0 0-1.139 4.703c0 5.368 4.125 9.788 9.365 10.245A9.733 9.733 0 0 1 10 18.55m9.406-16.246h-1.71l-.642-1.71-.642 1.71h-1.71l1.39 1.069-.642 1.924 1.604-1.176 1.604 1.176-.642-1.924 1.39-1.069z"/></svg>