<svg xmlns="http://www.w3.org/2000/svg" viewBox="0 0 20 20"><path fill="currentColor" d="M15.131 8.29a1.711 1.711 0 1 0 0 3.423 1.711 1.711 0 0 0 0-3.423m0 2.565a.855.855 0 1 1 0-1.71.855.855 0 0 1 0 1.71m-2.138 4.276a.428.428 0 1 0 0 .855.428.428 0 0 0 0-.855M4.87 10.855a.855.855 0 1 0 0 1.71.855.855 0 0 0 0-1.71m3.847 1.71a1.283 1.283 0 1 0 0 2.566 1.283 1.283 0 0 0 0-2.566m0 1.71a.428.428 0 0 1 0-.856.428.428 0 0 1 0 .856M11.283 10a.428.428 0 1 0 0 .856.428.428 0 0 0 0-.856M10 .594A9.406 9.406 0 0 0 .594 10 9.406 9.406 0 0 0 10 19.406 9.406 9.406 0 0 0 19.406 10 9.406 9.406 0 0 0 10 .594m0 17.958A8.551 8.551 0 0 1 1.449 10 8.552 8.552 0 1 1 10 18.552M7.435 4.014a2.565 2.565 0 1 0 0 5.13 2.565 2.565 0 0 0 0-5.13m0 4.276a1.71 1.71 0 1 1 .001-3.421 1.71 1.71 0 0 1-.001 3.421"/></svg>