<svg xmlns="http://www.w3.org/2000/svg" viewBox="0 0 20 20"><path fill="currentColor" d="M19.432 7.157c-.312-1.113-1.624-1.858-3.496-2.17.279.331.532.685.754 1.06 1.043.299 1.748.764 1.911 1.344.095.335.014.729-.24 1.169-.274.476-.768 1.007-1.455 1.542 0-.034.005-.067.005-.101a6.91 6.91 0 0 0-13.82 0c0 1.169.293 2.268.805 3.232-1.366-.277-2.303-.805-2.495-1.487-.094-.336-.013-.729.241-1.169.138-.239.35-.496.595-.756.011-.449.055-.89.138-1.317C.977 9.648.263 10.89.57 11.98c.338 1.205 1.845 1.98 3.968 2.24A6.885 6.885 0 0 0 10 16.91a6.907 6.907 0 0 0 6.791-5.659c1.944-1.3 3.004-2.803 2.641-4.094M10 16.047a6.023 6.023 0 0 1-4.238-1.738c.147.005.295.008.447.008 1.502 0 3.195-.212 4.941-.658 1.734-.443 3.297-1.064 4.595-1.776A6.05 6.05 0 0 1 10 16.047m5.998-5.314c-1.27.797-2.973 1.554-5.062 2.088-1.616.414-3.251.632-4.727.632-.427 0-.827-.025-1.213-.061A6.046 6.046 0 1 1 16.047 10c0 .249-.02.492-.049.733"/></svg>