<svg xmlns="http://www.w3.org/2000/svg" viewBox="0 0 20 20"><path fill="currentColor" d="M5.114 5.726a.432.432 0 0 0 .611-.61L3.893 3.282a.432.432 0 0 0-.61.611l1.831 1.833zM3.955 10a.431.431 0 0 0-.432-.432H.932a.431.431 0 1 0 0 .864h2.591A.432.432 0 0 0 3.955 10M10 3.955a.432.432 0 0 0 .432-.432V.933a.432.432 0 1 0-.864-.001v2.59c0 .24.194.433.432.433m4.886 1.771l1.832-1.833a.432.432 0 1 0-.61-.611l-1.833 1.833a.432.432 0 0 0 .611.611m-9.772 8.548l-1.832 1.833a.43.43 0 1 0 .61.61l1.833-1.832a.433.433 0 0 0 0-.611.433.433 0 0 0-.611 0m13.954-4.706h-2.591a.433.433 0 1 0 0 .864h2.591a.432.432 0 0 0 0-.864m-4.182 4.706a.432.432 0 1 0-.611.611l1.833 1.832a.43.43 0 1 0 .61-.61l-1.832-1.833zM10 4.818a5.183 5.183 0 1 0 .001 10.365A5.183 5.183 0 0 0 10 4.818m0 9.5a4.318 4.318 0 1 1 0-8.637 4.318 4.318 0 0 1 0 8.637m0 1.727a.432.432 0 0 0-.432.433v2.591a.433.433 0 0 0 .864 0v-2.591a.432.432 0 0 0-.432-.433"/></svg>