<svg xmlns="http://www.w3.org/2000/svg" viewBox="0 0 20 20">
  <path fill="currentColor" d="M5.114,5.726c0.169,0.168,0.442,0.168,0.611,0c0.168-0.169,0.168-0.442,0-0.61L3.893,3.282c-0.168-0.168-0.442-0.168-0.61,0c-0.169,0.169-0.169,0.442,0,0.611L5.114,5.726z M3.955,10c0-0.239-0.193-0.432-0.432-0.432H0.932C0.693,9.568,0.5,9.761,0.5,10s0.193,0.432,0.432,0.432h2.591C3.761,10.432,3.955,10.239,3.955,10 M10,3.955c0.238,0,0.432-0.193,0.432-0.432v-2.59C10.432,0.693,10.238,0.5,10,0.5S9.568,0.693,9.568,0.932v2.59C9.568,3.762,9.762,3.955,10,3.955 M14.886,5.726l1.832-1.833c0.169-0.168,0.169-0.442,0-0.611c-0.169-0.168-0.442-0.168-0.61,0l-1.833,1.833c-0.169,0.168-0.169,0.441,0,0.61C14.443,5.894,14.717,5.894,14.886,5.726 M5.114,14.274l-1.832,1.833c-0.169,0.168-0.169,0.441,0,0.61c0.168,0.169,0.442,0.169,0.61,0l1.833-1.832c0.168-0.169,0.168-0.442,0-0.611C5.557,14.106,5.283,14.106,5.114,14.274 M19.068,9.568h-2.591c-0.238,0-0.433,0.193-0.433,0.432s0.194,0.432,0.433,0.432h2.591c0.238,0,0.432-0.193,0.432-0.432S19.307,9.568,19.068,9.568 M14.886,14.274c-0.169-0.168-0.442-0.168-0.611,0c-0.169,0.169-0.169,0.442,0,0.611l1.833,1.832c0.168,0.169,0.441,0.169,0.61,0s0.169-0.442,0-0.61L14.886,14.274z M10,4.818c-2.861,0-5.182,2.32-5.182,5.182c0,2.862,2.321,5.182,5.182,5.182s5.182-2.319,5.182-5.182C15.182,7.139,12.861,4.818,10,4.818M10,14.318c-2.385,0-4.318-1.934-4.318-4.318c0-2.385,1.933-4.318,4.318-4.318c2.386,0,4.318,1.933,4.318,4.318C14.318,12.385,12.386,14.318,10,14.318 M10,16.045c-0.238,0-0.432,0.193-0.432,0.433v2.591c0,0.238,0.194,0.432,0.432,0.432s0.432-0.193,0.432-0.432v-2.591C10.432,16.238,10.238,16.045,10,16.045"/>
</svg>
