<svg xmlns="http://www.w3.org/2000/svg" viewBox="0 0 20 20"><path fill="currentColor" d="M18.935 18.509h-3.83a5.105 5.105 0 1 0-10.209 0h-3.83a.425.425 0 0 0 0 .851h17.869a.425.425 0 0 0 0-.851m-13.189 0a4.254 4.254 0 1 1 8.509 0H5.746zm9.067-4.211l1.805-1.806a.426.426 0 0 0-.602-.602l-1.806 1.805a.43.43 0 0 0 0 .603.43.43 0 0 0 .603 0M9.575 9.575v2.552a.425.425 0 1 0 .85 0V9.575a.425.425 0 1 0-.85 0m-4.388 4.723a.43.43 0 0 0 .603 0 .427.427 0 0 0 0-.603L3.984 11.89a.426.426 0 0 0-.602.602l1.805 1.806zM7.448 4.044h.851v2.127c0 .235.19.425.425.425h2.553c.234 0 .426-.19.426-.425V4.044h.851a.425.425 0 0 0 .301-.726L10.302.766a.426.426 0 0 0-.603 0L7.146 3.318a.425.425 0 0 0 .302.726M10 1.667l1.525 1.525h-.249a.426.426 0 0 0-.425.426v2.127H9.149V3.619a.425.425 0 0 0-.425-.426h-.249L10 1.667z"/></svg>