<svg xmlns="http://www.w3.org/2000/svg" viewBox="0 0 20 20"><path fill="currentColor" d="M5.163 5.768a.428.428 0 0 0 .605-.604L3.953 3.349a.427.427 0 1 0-.604.604l1.814 1.815zm9.674 0l1.814-1.814a.427.427 0 1 0-.605-.604l-1.813 1.814a.427.427 0 1 0 .604.604M10 4.014a.428.428 0 0 0 .428-.428V1.021a.428.428 0 0 0-.856 0v2.565c0 .237.192.428.428.428M18.979 10h-3.848a5.131 5.131 0 0 0-10.262 0H1.021a.428.428 0 1 0 0 .856h17.957a.428.428 0 0 0 .001-.856M5.725 10a4.275 4.275 0 0 1 8.551 0H5.725zm6.84 5.985h-.855v-2.138a.428.428 0 0 0-.428-.427H8.717a.428.428 0 0 0-.428.427v2.138h-.854a.428.428 0 0 0-.302.732l2.565 2.564a.424.424 0 0 0 .604 0l2.565-2.564a.43.43 0 0 0-.302-.732M10 18.374l-1.533-1.533h.25a.428.428 0 0 0 .428-.428v-2.138h1.709v2.138c0 .236.192.428.428.428h.251L10 18.374z"/></svg>