<svg xmlns="http://www.w3.org/2000/svg" viewBox="0 0 20 20"><path fill="currentColor" d="M10.867,12.751V7.4c0-0.478-0.388-0.866-0.866-0.866S9.134,6.923,9.134,7.4v5.351c-1.008,0.357-1.733,1.316-1.733,2.448c0,1.436,1.164,2.599,2.6,2.599c1.435,0,2.599-1.163,2.599-2.599C12.6,14.067,11.876,13.108,10.867,12.751 M12.6,11.739V3.068c0-1.436-1.164-2.6-2.599-2.6c-1.436,0-2.6,1.164-2.6,2.6v8.671c-1.05,0.79-1.733,2.044-1.733,3.46c0,2.393,1.939,4.332,4.333,4.332c2.392,0,4.333-1.939,4.333-4.332C14.333,13.783,13.65,12.529,12.6,11.739 M10,18.665c-1.914,0-3.466-1.552-3.466-3.466c0-1.282,0.698-2.399,1.733-2.999V3.068c0-0.957,0.776-1.733,1.733-1.733s1.733,0.776,1.733,1.733V12.2c1.035,0.6,1.732,1.717,1.732,2.999C13.466,17.113,11.914,18.665,10,18.665"/></svg>
