<svg xmlns="http://www.w3.org/2000/svg" viewBox="0 0 20 20"><path fill="currentColor" d="M10.867 12.751V7.4c0-.478-.388-.866-.866-.866s-.867.389-.867.866v5.351c-1.008.357-1.733 1.316-1.733 2.448 0 1.436 1.164 2.599 2.6 2.599 1.435 0 2.599-1.163 2.599-2.599 0-1.132-.724-2.091-1.733-2.448m1.733-1.012V3.068c0-1.436-1.164-2.6-2.599-2.6-1.436 0-2.6 1.164-2.6 2.6v8.671c-1.05.79-1.733 2.044-1.733 3.46 0 2.393 1.939 4.332 4.333 4.332 2.392 0 4.333-1.939 4.333-4.332-.001-1.416-.684-2.67-1.734-3.46M10 18.665c-1.914 0-3.466-1.552-3.466-3.466 0-1.282.698-2.399 1.733-2.999V3.068c0-.957.776-1.733 1.733-1.733s1.733.776 1.733 1.733V12.2c1.035.6 1.732 1.717 1.732 2.999.001 1.914-1.551 3.466-3.465 3.466"/></svg>
