<svg xmlns="http://www.w3.org/2000/svg" viewBox="0 0 20 20"><path fill="currentColor" d="M10 6.656a.845.845 0 1 0 .002 1.69.845.845 0 0 0-.002-1.69m.422-5.042v-.442a.421.421 0 1 0-.844 0v.442C4.649 1.826.719 5.696.719 10.453c0 .233.189.422.422.422h8.438v5.906a1.688 1.688 0 0 1-3.376 0 .421.421 0 1 0-.844 0 2.528 2.528 0 1 0 5.02.422h.042v-6.328h8.438a.422.422 0 0 0 .422-.422c0-4.757-3.93-8.627-8.859-8.839m-8.837 8.417C1.817 5.802 5.49 2.438 10 2.438s8.184 3.364 8.415 7.594H1.585zM4.094 7.5a.844.844 0 1 0-.001 1.687.844.844 0 0 0 .001-1.687m3.375-2.531a.845.845 0 1 0 .002 1.69.845.845 0 0 0-.002-1.69M15.062 7.5a.844.844 0 1 0 0 1.688.844.844 0 0 0 0-1.688m-2.531-3.375a.844.844 0 1 0 0 1.688.844.844 0 0 0 0-1.688"/></svg>