<svg xmlns="http://www.w3.org/2000/svg" viewBox="0 0 20 20"><path fill="currentColor" d="M2.568 7.179H8.96a2.558 2.558 0 0 0 0-5.114h-.426a.426.426 0 1 0 0 .852h.426a1.704 1.704 0 0 1 0 3.41H2.568a.425.425 0 1 0 0 .852m13.21 0c0-.941-.763-1.704-1.704-1.704h-.427a.426.426 0 1 0 0 .852h.427a.853.853 0 0 1 0 1.705H.864a.425.425 0 1 0 0 .852h13.21c.942 0 1.704-.764 1.704-1.705m.853 2.557H2.568a.425.425 0 1 0 0 .852H16.63a1.706 1.706 0 0 1 0 3.409h-.427a.426.426 0 1 0 0 .853h.427a2.558 2.558 0 0 0 .001-5.114m-5.966 1.704H4.273a.426.426 0 1 0 0 .853h6.392a2.557 2.557 0 0 1 0 5.114h-.426a.426.426 0 1 0 0 .853h.426a3.41 3.41 0 1 0 0-6.82"/></svg>